<svg width="127" height="55" viewBox="0 0 127 55" fill="none" xmlns="http://www.w3.org/2000/svg">
<path d="M1.10687 20.304V0.593955H5.53487V20.304H1.10687ZM19.3597 20.817C17.5957 20.817 16.0567 20.529 14.7427 19.953C13.4287 19.359 12.3397 18.567 11.4757 17.577C10.6297 16.587 9.99971 15.489 9.58571 14.283C9.17171 13.077 8.96471 11.871 8.96471 10.665V10.071C8.96471 8.82895 9.17171 7.61395 9.58571 6.42596C9.99971 5.23795 10.6207 4.15795 11.4487 3.18595C12.2947 2.21395 13.3387 1.43995 14.5807 0.863954C15.8407 0.287954 17.2897 -4.5836e-05 18.9277 -4.5836e-05C20.7097 -4.5836e-05 22.2847 0.332954 23.6527 0.998954C25.0207 1.64695 26.1187 2.55595 26.9467 3.72595C27.7747 4.87795 28.2517 6.21895 28.3777 7.74895H23.9497C23.8417 7.02895 23.5537 6.39895 23.0857 5.85895C22.6357 5.31895 22.0507 4.89595 21.3307 4.58995C20.6287 4.28395 19.8277 4.13095 18.9277 4.13095C18.0637 4.13095 17.2897 4.28395 16.6057 4.58995C15.9397 4.89595 15.3637 5.32795 14.8777 5.88595C14.4097 6.44395 14.0497 7.10995 13.7977 7.88395C13.5637 8.63995 13.4467 9.47695 13.4467 10.395C13.4467 11.349 13.5727 12.222 13.8247 13.014C14.0947 13.788 14.4817 14.463 14.9857 15.039C15.4897 15.597 16.1107 16.029 16.8487 16.335C17.6047 16.641 18.4417 16.794 19.3597 16.794C20.5837 16.794 21.6457 16.542 22.5457 16.038C23.4457 15.534 24.0937 14.868 24.4897 14.04L23.9497 17.064V12.366H28.0267V16.578C27.1807 17.946 26.0107 18.999 24.5167 19.737C23.0407 20.457 21.3217 20.817 19.3597 20.817ZM18.7927 13.23V10.044H29.6467V13.23H18.7927ZM32.5089 20.304V0.593955H39.7719L47.1969 16.713H48.1149L47.5749 17.199V0.593955H51.7329V20.304H44.4159L36.9909 4.18496H36.0729L36.6129 3.69895V20.304H32.5089ZM54.2973 20.304L60.8043 0.593955H67.9593L74.7093 20.304H70.1193L64.6653 3.64495L66.0693 4.21195H62.5863L64.0443 3.64495L58.7253 20.304H54.2973ZM59.2383 15.417L60.5883 11.745H68.3103L69.6873 15.417H59.2383ZM85.4817 20.817C83.6997 20.817 82.1697 20.511 80.8917 19.899C79.6137 19.269 78.5697 18.45 77.7597 17.442C76.9497 16.416 76.3467 15.318 75.9507 14.148C75.5727 12.96 75.3837 11.808 75.3837 10.692V10.098C75.3837 8.87395 75.5817 7.66795 75.9777 6.47995C76.3737 5.27395 76.9767 4.18495 77.7867 3.21295C78.6147 2.24095 79.6497 1.46695 80.8917 0.890954C82.1517 0.296954 83.6367 -4.5836e-05 85.3467 -4.5836e-05C87.1287 -4.5836e-05 88.7037 0.332954 90.0717 0.998954C91.4397 1.66495 92.5287 2.59195 93.3387 3.77995C94.1667 4.94995 94.6527 6.32695 94.7967 7.91095H90.3417C90.2157 7.11895 89.9277 6.44395 89.4777 5.88595C89.0277 5.32795 88.4427 4.89595 87.7227 4.58995C87.0207 4.28395 86.2287 4.13095 85.3467 4.13095C84.4647 4.13095 83.6817 4.28395 82.9977 4.58995C82.3137 4.89595 81.7377 5.32795 81.2697 5.88595C80.8197 6.44395 80.4687 7.10995 80.2167 7.88395C79.9827 8.63995 79.8657 9.48595 79.8657 10.422C79.8657 11.34 79.9827 12.186 80.2167 12.96C80.4687 13.716 80.8287 14.382 81.2967 14.958C81.7827 15.516 82.3767 15.948 83.0787 16.254C83.7807 16.542 84.5817 16.686 85.4817 16.686C86.8497 16.686 88.0017 16.353 88.9377 15.687C89.8917 15.021 90.4677 14.103 90.6657 12.933H95.0937C94.9317 14.373 94.4457 15.696 93.6357 16.902C92.8437 18.09 91.7547 19.044 90.3687 19.764C89.0007 20.466 87.3717 20.817 85.4817 20.817ZM98.0854 20.304V0.593955H102.513V20.304H98.0854ZM116.446 20.817C114.664 20.817 113.107 20.511 111.775 19.899C110.461 19.269 109.372 18.45 108.508 17.442C107.644 16.416 106.996 15.309 106.564 14.121C106.15 12.933 105.943 11.79 105.943 10.692V10.098C105.943 8.87395 106.159 7.66795 106.591 6.47995C107.041 5.27395 107.707 4.18495 108.589 3.21295C109.471 2.24095 110.569 1.46695 111.883 0.890954C113.197 0.296954 114.718 -4.5836e-05 116.446 -4.5836e-05C118.174 -4.5836e-05 119.695 0.296954 121.009 0.890954C122.323 1.46695 123.421 2.24095 124.303 3.21295C125.185 4.18495 125.851 5.27395 126.301 6.47995C126.751 7.66795 126.976 8.87395 126.976 10.098V10.692C126.976 11.79 126.76 12.933 126.328 14.121C125.896 15.309 125.248 16.416 124.384 17.442C123.52 18.45 122.422 19.269 121.09 19.899C119.776 20.511 118.228 20.817 116.446 20.817ZM116.446 16.686C117.382 16.686 118.219 16.524 118.957 16.2C119.713 15.876 120.352 15.426 120.874 14.85C121.414 14.274 121.819 13.608 122.089 12.852C122.359 12.096 122.494 11.286 122.494 10.422C122.494 9.50395 122.35 8.66695 122.062 7.91095C121.792 7.13695 121.387 6.47095 120.847 5.91295C120.325 5.33695 119.695 4.89595 118.957 4.58995C118.219 4.28395 117.382 4.13095 116.446 4.13095C115.51 4.13095 114.673 4.28395 113.935 4.58995C113.197 4.89595 112.558 5.33695 112.018 5.91295C111.496 6.47095 111.1 7.13695 110.83 7.91095C110.56 8.66695 110.425 9.50395 110.425 10.422C110.425 11.286 110.56 12.096 110.83 12.852C111.1 13.608 111.496 14.274 112.018 14.85C112.558 15.426 113.197 15.876 113.935 16.2C114.673 16.524 115.51 16.686 116.446 16.686ZM10.3949 54.817C8.63087 54.817 7.09187 54.529 5.77787 53.953C4.46387 53.359 3.37487 52.567 2.51087 51.577C1.66487 50.587 1.03487 49.489 0.620867 48.283C0.206867 47.077 -0.000132773 45.871 -0.000132773 44.665V44.071C-0.000132773 42.829 0.206867 41.614 0.620867 40.426C1.03487 39.238 1.65587 38.158 2.48387 37.186C3.32987 36.214 4.37387 35.44 5.61587 34.864C6.87587 34.288 8.32487 34 9.96287 34C11.7449 34 13.3199 34.333 14.6879 34.999C16.0559 35.647 17.1539 36.556 17.9819 37.726C18.8099 38.878 19.2869 40.219 19.4129 41.749H14.9849C14.8769 41.029 14.5889 40.399 14.1209 39.859C13.6709 39.319 13.0859 38.896 12.3659 38.59C11.6639 38.284 10.8629 38.131 9.96287 38.131C9.09887 38.131 8.32487 38.284 7.64087 38.59C6.97487 38.896 6.39887 39.328 5.91287 39.886C5.44487 40.444 5.08487 41.11 4.83287 41.884C4.59887 42.64 4.48187 43.477 4.48187 44.395C4.48187 45.349 4.60787 46.222 4.85987 47.014C5.12987 47.788 5.51687 48.463 6.02087 49.039C6.52487 49.597 7.14587 50.029 7.88387 50.335C8.63987 50.641 9.47687 50.794 10.3949 50.794C11.6189 50.794 12.6809 50.542 13.5809 50.038C14.4809 49.534 15.1289 48.868 15.5249 48.04L14.9849 51.064V46.366H19.0619V50.578C18.2159 51.946 17.0459 52.999 15.5519 53.737C14.0759 54.457 12.3569 54.817 10.3949 54.817ZM9.82787 47.23V44.044H20.6819V47.23H9.82787ZM32.9413 54.817C31.1593 54.817 29.6023 54.511 28.2703 53.899C26.9563 53.269 25.8673 52.45 25.0033 51.442C24.1393 50.416 23.4913 49.309 23.0593 48.121C22.6453 46.933 22.4383 45.79 22.4383 44.692V44.098C22.4383 42.874 22.6543 41.668 23.0863 40.48C23.5363 39.274 24.2023 38.185 25.0843 37.213C25.9663 36.241 27.0643 35.467 28.3783 34.891C29.6923 34.297 31.2133 34 32.9413 34C34.6693 34 36.1903 34.297 37.5043 34.891C38.8183 35.467 39.9163 36.241 40.7983 37.213C41.6803 38.185 42.3463 39.274 42.7963 40.48C43.2463 41.668 43.4713 42.874 43.4713 44.098V44.692C43.4713 45.79 43.2553 46.933 42.8233 48.121C42.3913 49.309 41.7433 50.416 40.8793 51.442C40.0153 52.45 38.9173 53.269 37.5853 53.899C36.2713 54.511 34.7233 54.817 32.9413 54.817ZM32.9413 50.686C33.8773 50.686 34.7143 50.524 35.4523 50.2C36.2083 49.876 36.8473 49.426 37.3693 48.85C37.9093 48.274 38.3143 47.608 38.5843 46.852C38.8543 46.096 38.9893 45.286 38.9893 44.422C38.9893 43.504 38.8453 42.667 38.5573 41.911C38.2873 41.137 37.8823 40.471 37.3423 39.913C36.8203 39.337 36.1903 38.896 35.4523 38.59C34.7143 38.284 33.8773 38.131 32.9413 38.131C32.0053 38.131 31.1683 38.284 30.4303 38.59C29.6923 38.896 29.0533 39.337 28.5133 39.913C27.9913 40.471 27.5953 41.137 27.3253 41.911C27.0553 42.667 26.9203 43.504 26.9203 44.422C26.9203 45.286 27.0553 46.096 27.3253 46.852C27.5953 47.608 27.9913 48.274 28.5133 48.85C29.0533 49.426 29.6923 49.876 30.4303 50.2C31.1683 50.524 32.0053 50.686 32.9413 50.686ZM30.6463 33.109L34.0213 28.276H38.6653L34.7773 33.109H30.6463ZM46.8263 54.304V34.594H52.9283L57.4373 45.664H57.9503L62.4053 34.594H68.6153V54.304H64.2413V37.483L64.8623 37.537L59.6513 50.308H55.4393L50.2013 37.537L50.8763 37.483V54.304H46.8263ZM73.0353 54.304V34.594H77.3553V54.304H73.0353ZM76.8153 54.304V50.632H85.4283V54.304H76.8153ZM76.8153 46.123V42.451H84.8073V46.123H76.8153ZM76.8153 38.266V34.594H85.2393V38.266H76.8153ZM87.8785 54.304V50.983L98.1385 38.347L98.2195 38.887L97.3555 37.753L97.9495 38.212H88.2295V34.594H103.377V37.915L93.0895 50.551L92.9815 49.957L93.8995 51.172L93.2515 50.659H103.377V54.304H87.8785Z" fill="#C3E2FF"/>
</svg>
