<svg width="57" height="46" viewBox="0 0 57 46" fill="none" xmlns="http://www.w3.org/2000/svg">
<path d="M9.37997 0.606516V44.9702H0.000355072V0.606516H9.37997ZM46.5139 14.9467C46.2107 13.8925 45.7847 12.961 45.2359 12.1523C44.6871 11.3292 44.0156 10.636 43.2213 10.0728C42.4415 9.49513 41.5461 9.05467 40.5352 8.7514C39.5388 8.44814 38.434 8.2965 37.221 8.2965C34.9537 8.2965 32.9608 8.85971 31.2423 9.98613C29.5382 11.1126 28.2096 12.7516 27.2565 14.9034C26.3034 17.0407 25.8268 19.6546 25.8268 22.745C25.8268 25.8354 26.2961 28.4638 27.2348 30.63C28.1735 32.7961 29.5021 34.4497 31.2206 35.5905C32.9391 36.717 34.9681 37.2802 37.3076 37.2802C39.4305 37.2802 41.2429 36.9047 42.7448 36.1537C44.2611 35.3884 45.4164 34.3125 46.2107 32.9261C47.0194 31.5398 47.4237 29.9007 47.4237 28.0089L49.33 28.2905H37.8925V21.2287H56.4568V26.8175C56.4568 30.7166 55.6336 34.067 53.9873 36.8686C52.341 39.6558 50.0737 41.8075 47.1855 43.3238C44.2972 44.8257 40.9901 45.5767 37.2643 45.5767C33.1052 45.5767 29.4516 44.6597 26.3034 42.8256C23.1552 40.9771 20.7001 38.356 18.9383 34.9623C17.1909 31.5542 16.3172 27.5106 16.3172 22.8317C16.3172 19.2358 16.8371 16.0298 17.8769 13.2138C18.9311 10.3833 20.4041 7.98602 22.2959 6.022C24.1877 4.05798 26.39 2.56331 28.9028 1.53798C31.4156 0.512647 34.1378 -1.82986e-05 37.0693 -1.82986e-05C39.5821 -1.82986e-05 41.9216 0.368235 44.0878 1.10474C46.254 1.82681 48.1747 2.85214 49.8499 4.18073C51.5395 5.50933 52.9187 7.09065 53.9873 8.9247C55.056 10.7443 55.7419 12.7516 56.0452 14.9467H46.5139Z" fill="#91BBE2"/>
</svg>
