<svg width="402" height="7400" viewBox="0 0 402 7400" fill="none" xmlns="http://www.w3.org/2000/svg">
<g clip-path="url(#clip0_187_3)">
<rect width="402" height="7400" fill="white"/>
<g clip-path="url(#clip1_187_3)">
<rect width="402" height="874" transform="translate(0 4370)" fill="white"/>
<rect x="-1" y="4370" width="402" height="874" fill="#D9D9D9"/>
<rect x="26" y="4560" width="348" height="460" rx="22" fill="#F5F5F5"/>
<rect x="386" y="4560" width="348" height="460" rx="22" fill="#F5F5F5"/>
<rect x="66" y="4892.71" width="270" height="18.4091" rx="5" fill="#8C8C8C"/>
<rect x="66" y="4918.79" width="270" height="18.4091" rx="5" fill="#8C8C8C"/>
<rect x="115.091" y="4944.88" width="172.585" height="18.4091" rx="5" fill="#8C8C8C"/>
<rect x="216" y="5075" width="18" height="16" rx="8" fill="#515151"/>
<rect x="136" y="5075" width="69" height="16" rx="8" fill="#515151"/>
<rect x="249" y="5075" width="18" height="16" rx="8" fill="#515151"/>
</g>
<g clip-path="url(#clip2_187_3)">
<rect width="402" height="874" fill="white"/>
<rect width="402" height="874" fill="#D9D9D9"/>
<path d="M267.617 449.217L260.783 456.05L247.117 442.383L253.95 435.55C254.633 434.867 255.317 434.183 256.683 434.183C257.367 434.183 258.733 434.867 259.417 435.55L268.3 444.433C268.983 445.8 268.983 447.85 267.617 449.217ZM201.333 487.483V501.833H215.683L257.367 460.15L243.7 446.483L201.333 487.483ZM256 385.667C256 378.15 249.85 372 242.333 372H146.667C139.15 372 133 378.15 133 385.667L133 481.333C133 488.85 139.15 495 146.667 495H187.667L187.667 482.017L195.183 474.5H146.667L170.583 443.75L187.667 464.25L211.583 433.5L222.517 447.85L256 413.683V385.667Z" fill="#515151"/>
<rect x="25" y="196" width="352" height="24" rx="5" fill="#8C8C8C"/>
<rect x="25" y="230" width="352" height="24" rx="5" fill="#8C8C8C"/>
<rect x="89" y="264" width="225" height="24" rx="5" fill="#8C8C8C"/>
<rect x="25" y="617" width="352" height="17" rx="5" fill="#8C8C8C"/>
<rect x="25" y="643" width="352" height="16" rx="5" fill="#8C8C8C"/>
<rect x="25" y="668" width="352" height="17" rx="5" fill="#8C8C8C"/>
<rect x="89" y="719" width="225" height="66" rx="8" fill="#515151"/>
<path d="M50.1699 75.2437V79H32.752V75.2437H50.1699ZM33.6611 44.1641L33.6611 79H29.0435L29.0435 44.1641H33.6611ZM53.6152 66.3433V65.793C53.6152 63.9268 53.8864 62.1961 54.4287 60.6011C54.971 58.9901 55.7526 57.5944 56.7734 56.4141C57.7943 55.2178 59.0304 54.2926 60.4819 53.6387C61.9334 52.9688 63.5604 52.6338 65.3628 52.6338C67.1812 52.6338 68.8161 52.9688 70.2676 53.6387C71.735 54.2926 72.9792 55.2178 74 56.4141C75.0368 57.5944 75.8263 58.9901 76.3687 60.6011C76.911 62.1961 77.1821 63.9268 77.1821 65.793V66.3433C77.1821 68.2095 76.911 69.9401 76.3687 71.5352C75.8263 73.1302 75.0368 74.5259 74 75.7222C72.9792 76.9025 71.743 77.8276 70.2915 78.4976C68.856 79.1515 67.229 79.4785 65.4106 79.4785C63.5923 79.4785 61.9574 79.1515 60.5059 78.4976C59.0544 77.8276 57.8102 76.9025 56.7734 75.7222C55.7526 74.5259 54.971 73.1302 54.4287 71.5352C53.8864 69.9401 53.6152 68.2095 53.6152 66.3433ZM58.0415 65.793V66.3433C58.0415 67.6353 58.193 68.8555 58.4961 70.0039C58.7992 71.1364 59.2537 72.1413 59.8599 73.0186C60.4819 73.8958 61.2555 74.5897 62.1807 75.1001C63.1058 75.5946 64.1825 75.8418 65.4106 75.8418C66.6229 75.8418 67.6836 75.5946 68.5928 75.1001C69.5179 74.5897 70.2835 73.8958 70.8896 73.0186C71.4958 72.1413 71.9504 71.1364 72.2534 70.0039C72.5724 68.8555 72.7319 67.6353 72.7319 66.3433V65.793C72.7319 64.5169 72.5724 63.3127 72.2534 62.1802C71.9504 61.0317 71.4878 60.0189 70.8657 59.1416C70.2596 58.2484 69.494 57.5465 68.5688 57.0361C67.6597 56.5257 66.591 56.2705 65.3628 56.2705C64.1506 56.2705 63.0819 56.5257 62.1567 57.0361C61.2476 57.5465 60.4819 58.2484 59.8599 59.1416C59.2537 60.0189 58.7992 61.0317 58.4961 62.1802C58.193 63.3127 58.0415 64.5169 58.0415 65.793ZM99.5049 53.1123H103.524L103.524 78.4497C103.524 80.7306 103.062 82.6766 102.137 84.2876C101.212 85.8986 99.9196 87.1188 98.2607 87.9482C96.6178 88.7936 94.7197 89.2163 92.5664 89.2163C91.6732 89.2163 90.6204 89.0728 89.4082 88.7856C88.2119 88.5145 87.0316 88.0439 85.8672 87.374C84.7188 86.7201 83.7537 85.8348 82.9722 84.7183L85.293 82.0864C86.3776 83.3944 87.5101 84.3035 88.6904 84.814C89.8867 85.3244 91.0671 85.5796 92.2314 85.5796C93.6351 85.5796 94.8473 85.3164 95.8682 84.79C96.889 84.2637 97.6785 83.4821 98.2368 82.4453C98.811 81.4245 99.0981 80.1644 99.0981 78.665L99.0981 58.8066L99.5049 53.1123ZM81.6802 66.3433V65.8408C81.6802 63.863 81.9115 62.0685 82.374 60.4575C82.8525 58.8306 83.5304 57.4349 84.4077 56.2705C85.3009 55.1061 86.3776 54.2129 87.6377 53.5908C88.8978 52.9528 90.3174 52.6338 91.8965 52.6338C93.5234 52.6338 94.943 52.9209 96.1553 53.4951C97.3835 54.0534 98.4202 54.8748 99.2656 55.9595C100.127 57.0282 100.805 58.3201 101.299 59.8354C101.794 61.3507 102.137 63.0654 102.328 64.9795V67.1807C102.153 69.0788 101.81 70.7855 101.299 72.3008C100.805 73.8161 100.127 75.1081 99.2656 76.1768C98.4202 77.2454 97.3835 78.0669 96.1553 78.6411C94.9271 79.1994 93.4915 79.4785 91.8486 79.4785C90.3014 79.4785 88.8978 79.1515 87.6377 78.4976C86.3936 77.8436 85.3249 76.9264 84.4316 75.7461C83.5384 74.5658 82.8525 73.1781 82.374 71.583C81.9115 69.972 81.6802 68.2254 81.6802 66.3433ZM86.1064 65.8408V66.3433C86.1064 67.6353 86.234 68.8475 86.4893 69.98C86.7604 71.1125 87.1672 72.1094 87.7095 72.9707C88.2677 73.832 88.9775 74.5099 89.8389 75.0044C90.7002 75.4829 91.729 75.7222 92.9253 75.7222C94.3927 75.7222 95.605 75.4111 96.562 74.7891C97.519 74.167 98.2767 73.3455 98.835 72.3247C99.4092 71.3039 99.8558 70.1953 100.175 68.999V63.2329C99.9993 62.3556 99.7282 61.5103 99.3613 60.6968C99.0104 59.8674 98.5479 59.1336 97.9736 58.4956C97.4154 57.8416 96.7215 57.3232 95.8921 56.9404C95.0627 56.5576 94.0897 56.3662 92.9731 56.3662C91.7609 56.3662 90.7161 56.6214 89.8389 57.1318C88.9775 57.6263 88.2677 58.3122 87.7095 59.1895C87.1672 60.0508 86.7604 61.0557 86.4893 62.2041C86.234 63.3366 86.1064 64.5488 86.1064 65.8408ZM109.075 66.3433V65.793C109.075 63.9268 109.346 62.1961 109.889 60.6011C110.431 58.9901 111.213 57.5944 112.233 56.4141C113.254 55.2178 114.49 54.2926 115.942 53.6387C117.393 52.9688 119.02 52.6338 120.823 52.6338C122.641 52.6338 124.276 52.9688 125.728 53.6387C127.195 54.2926 128.439 55.2178 129.46 56.4141C130.497 57.5944 131.286 58.9901 131.829 60.6011C132.371 62.1961 132.642 63.9268 132.642 65.793V66.3433C132.642 68.2095 132.371 69.9401 131.829 71.5352C131.286 73.1302 130.497 74.5259 129.46 75.7222C128.439 76.9025 127.203 77.8276 125.751 78.4976C124.316 79.1515 122.689 79.4785 120.871 79.4785C119.052 79.4785 117.417 79.1515 115.966 78.4976C114.514 77.8276 113.27 76.9025 112.233 75.7222C111.213 74.5259 110.431 73.1302 109.889 71.5352C109.346 69.9401 109.075 68.2095 109.075 66.3433ZM113.501 65.793V66.3433C113.501 67.6353 113.653 68.8555 113.956 70.0039C114.259 71.1364 114.714 72.1413 115.32 73.0186C115.942 73.8958 116.715 74.5897 117.641 75.1001C118.566 75.5946 119.642 75.8418 120.871 75.8418C122.083 75.8418 123.144 75.5946 124.053 75.1001C124.978 74.5897 125.743 73.8958 126.35 73.0186C126.956 72.1413 127.41 71.1364 127.713 70.0039C128.032 68.8555 128.192 67.6353 128.192 66.3433V65.793C128.192 64.5169 128.032 63.3127 127.713 62.1802C127.41 61.0317 126.948 60.0189 126.326 59.1416C125.72 58.2484 124.954 57.5465 124.029 57.0361C123.12 56.5257 122.051 56.2705 120.823 56.2705C119.611 56.2705 118.542 56.5257 117.617 57.0361C116.708 57.5465 115.942 58.2484 115.32 59.1416C114.714 60.0189 114.259 61.0317 113.956 62.1802C113.653 63.3127 113.501 64.5169 113.501 65.793Z" fill="white"/>
<rect x="314" y="51.9053" width="63" height="9.36486" rx="4.68243" fill="#515151"/>
<rect x="314" y="64.6758" width="63" height="9.36486" rx="4.68243" fill="#515151"/>
<rect x="314" y="77.4453" width="63" height="9.36486" rx="4.68243" fill="#515151"/>
</g>
<g clip-path="url(#clip3_187_3)">
<rect width="402" height="874" transform="translate(0 874)" fill="white"/>
<rect y="874" width="402" height="874" fill="#D9D9D9"/>
<rect x="25" y="1124" width="352" height="24" rx="5" fill="#8C8C8C"/>
<rect x="25" y="1158" width="352" height="24" rx="5" fill="#8C8C8C"/>
<rect x="89" y="1192" width="225" height="24" rx="5" fill="#8C8C8C"/>
<path d="M108.559 1351.42L102.562 1353.87L97.6619 1341.88L103.658 1339.43C104.258 1339.19 104.858 1338.94 105.702 1339.3C106.125 1339.48 106.792 1340.25 107.037 1340.85L110.222 1348.65C110.29 1349.67 109.758 1350.94 108.559 1351.42ZM57.6627 1357.86L53.9391 1366.73L62.8082 1370.45L99.3869 1355.52L94.4864 1343.53L57.6627 1357.86ZM117.869 1309.15C119.82 1304.5 117.614 1299.11 112.969 1297.16L53.8413 1272.32C49.1956 1270.37 43.7987 1272.57 41.8483 1277.22L17.0247 1336.32C15.0742 1340.97 17.2795 1346.36 21.9252 1348.31L47.2655 1358.96L50.6344 1350.94L57.2306 1348.24L27.2445 1335.65L50.0054 1322.86L55.2445 1339.96L78.0054 1327.17L81.0392 1338.87L110.599 1326.46L117.869 1309.15Z" fill="#515151"/>
<path d="M245.72 1430.51L242.651 1436.22L231.241 1430.09L234.31 1424.38C234.617 1423.81 234.924 1423.24 235.801 1422.98C236.24 1422.85 237.249 1423.02 237.819 1423.33L245.236 1427.31C245.938 1428.06 246.333 1429.37 245.72 1430.51ZM210.548 1467.86L213.316 1477.07L222.528 1474.3L241.248 1439.51L229.838 1433.38L210.548 1467.86ZM226.004 1391.97C224.555 1387.15 219.42 1384.39 214.595 1385.84L153.178 1404.3C148.353 1405.75 145.591 1410.88 147.04 1415.71L165.493 1477.1C166.942 1481.92 172.077 1484.68 176.902 1483.23L203.224 1475.32L200.719 1466.99L204.095 1460.72L172.948 1470.08L182.371 1445.73L197.293 1455.59L206.716 1431.24L216.503 1438.34L231.408 1409.95L226.004 1391.97Z" fill="#515151"/>
<path d="M375.566 1315.19L373.332 1321.27L361.171 1316.81L363.406 1310.73C363.629 1310.12 363.853 1309.51 364.684 1309.13C365.1 1308.93 366.123 1308.97 366.731 1309.19L374.636 1312.09C375.436 1312.73 376.013 1313.98 375.566 1315.19ZM346.009 1357.12L350.047 1365.85L358.777 1361.81L372.407 1324.73L360.246 1320.26L346.009 1357.12ZM350.616 1279.81C348.5 1275.24 343.028 1273.23 338.455 1275.35L280.254 1302.28C275.681 1304.4 273.67 1309.87 275.785 1314.44L302.705 1372.62C304.821 1377.19 310.293 1379.2 314.866 1377.08L339.809 1365.54L336.156 1357.65L338.614 1350.96L309.097 1364.62L314.994 1339.18L331.156 1346.84L337.054 1321.41L347.743 1327.06L358.5 1296.85L350.616 1279.81Z" fill="#515151"/>
</g>
<g clip-path="url(#clip4_187_3)">
<rect width="402" height="874" transform="translate(0 1748)" fill="white"/>
<rect y="1748" width="402" height="874" fill="#D9D9D9"/>
<rect x="25" y="1998" width="352" height="24" rx="5" fill="#8C8C8C"/>
<rect x="25" y="2032" width="352" height="24" rx="5" fill="#8C8C8C"/>
<rect x="89" y="2066" width="225" height="24" rx="5" fill="#8C8C8C"/>
<path d="M108.559 2225.42L102.562 2227.87L97.6619 2215.88L103.658 2213.43C104.258 2213.19 104.858 2212.94 105.702 2213.3C106.125 2213.48 106.792 2214.25 107.037 2214.85L110.222 2222.65C110.29 2223.67 109.758 2224.94 108.559 2225.42ZM57.6627 2231.86L53.9391 2240.73L62.8082 2244.45L99.3869 2229.52L94.4864 2217.53L57.6627 2231.86ZM117.869 2183.15C119.82 2178.5 117.614 2173.11 112.969 2171.16L53.8413 2146.32C49.1956 2144.37 43.7987 2146.57 41.8483 2151.22L17.0247 2210.32C15.0742 2214.97 17.2795 2220.36 21.9252 2222.31L47.2655 2232.96L50.6344 2224.94L57.2306 2222.24L27.2445 2209.65L50.0054 2196.86L55.2445 2213.96L78.0054 2201.17L81.0392 2212.87L110.599 2200.46L117.869 2183.15Z" fill="#515151"/>
<path d="M245.72 2304.51L242.651 2310.22L231.241 2304.09L234.31 2298.38C234.617 2297.81 234.924 2297.24 235.801 2296.98C236.24 2296.85 237.249 2297.02 237.819 2297.33L245.236 2301.31C245.938 2302.06 246.333 2303.37 245.72 2304.51ZM210.548 2341.86L213.316 2351.07L222.528 2348.3L241.248 2313.51L229.838 2307.38L210.548 2341.86ZM226.004 2265.97C224.555 2261.15 219.42 2258.39 214.595 2259.84L153.178 2278.3C148.353 2279.75 145.591 2284.88 147.04 2289.71L165.493 2351.1C166.942 2355.92 172.077 2358.68 176.902 2357.23L203.224 2349.32L200.719 2340.99L204.095 2334.72L172.948 2344.08L182.371 2319.73L197.293 2329.59L206.716 2305.24L216.503 2312.34L231.408 2283.95L226.004 2265.97Z" fill="#515151"/>
<path d="M375.566 2189.19L373.332 2195.27L361.171 2190.81L363.406 2184.73C363.629 2184.12 363.853 2183.51 364.684 2183.13C365.1 2182.93 366.123 2182.97 366.731 2183.19L374.636 2186.09C375.436 2186.73 376.013 2187.98 375.566 2189.19ZM346.009 2231.12L350.047 2239.85L358.777 2235.81L372.407 2198.73L360.246 2194.26L346.009 2231.12ZM350.616 2153.81C348.5 2149.24 343.028 2147.23 338.455 2149.35L280.254 2176.28C275.681 2178.4 273.67 2183.87 275.785 2188.44L302.705 2246.62C304.821 2251.19 310.293 2253.2 314.866 2251.08L339.809 2239.54L336.156 2231.65L338.614 2224.96L309.097 2238.62L314.994 2213.18L331.156 2220.84L337.054 2195.41L347.743 2201.06L358.5 2170.85L350.616 2153.81Z" fill="#515151"/>
</g>
<g clip-path="url(#clip5_187_3)">
<rect width="402" height="874" transform="translate(0 2622)" fill="white"/>
<rect y="2622" width="402" height="874" fill="#D9D9D9"/>
<path d="M245.241 3067.74L240.66 3072.32L231.499 3063.16L236.08 3058.58C236.538 3058.13 236.996 3057.67 237.912 3057.67C238.37 3057.67 239.286 3058.13 239.744 3058.58L245.699 3064.54C246.157 3065.45 246.157 3066.83 245.241 3067.74ZM200.808 3093.38V3103H210.427L238.37 3075.07L229.208 3065.91L200.808 3093.38ZM237.454 3025.16C237.454 3020.12 233.331 3016 228.292 3016H164.162C159.123 3016 155 3020.12 155 3025.16V3089.26C155 3094.3 159.123 3098.42 164.162 3098.42H191.646V3089.72L196.685 3084.68H164.162L180.194 3064.08L191.646 3077.82L207.679 3057.21L215.008 3066.83L237.454 3043.93V3025.16Z" fill="#515151"/>
<rect x="25" y="3013" width="352" height="24" rx="5" fill="#8C8C8C"/>
<rect x="25" y="3047" width="352" height="24" rx="5" fill="#8C8C8C"/>
<rect x="89" y="3081" width="225" height="24" rx="5" fill="#8C8C8C"/>
</g>
<rect x="24" y="2769" width="343.704" height="9" rx="4.5" fill="#8C8C8C"/>
<rect x="24" y="3275" width="343.704" height="9" rx="4.5" fill="#8C8C8C"/>
<rect x="24" y="2854" width="343.704" height="9" rx="4.5" fill="#8C8C8C"/>
<rect x="24" y="3360" width="343.704" height="9" rx="4.5" fill="#8C8C8C"/>
<line x1="24" y1="2795.5" x2="376" y2="2795.5" stroke="black" stroke-width="5"/>
<line x1="24" y1="3301.5" x2="376" y2="3301.5" stroke="black" stroke-width="5"/>
<line x1="24" y1="2880.5" x2="376" y2="2880.5" stroke="black" stroke-width="5"/>
<line x1="24" y1="3386.5" x2="376" y2="3386.5" stroke="black" stroke-width="5"/>
<g clip-path="url(#clip6_187_3)">
<rect width="402" height="874" transform="translate(-1 3496)" fill="white"/>
<rect x="-1" y="3496" width="402" height="874" fill="#D9D9D9"/>
<rect x="24" y="3557" width="352" height="24" rx="5" fill="#8C8C8C"/>
<rect x="26" y="3703" width="348" height="460" rx="22" fill="#F5F5F5"/>
<rect x="386" y="3703" width="348" height="460" rx="22" fill="#F5F5F5"/>
<path d="M267.617 3854.22L260.783 3861.05L247.117 3847.38L253.95 3840.55C254.633 3839.87 255.317 3839.18 256.683 3839.18C257.367 3839.18 258.733 3839.87 259.417 3840.55L268.3 3849.43C268.983 3850.8 268.983 3852.85 267.617 3854.22ZM201.333 3892.48V3906.83H215.683L257.367 3865.15L243.7 3851.48L201.333 3892.48ZM256 3790.67C256 3783.15 249.85 3777 242.333 3777H146.667C139.15 3777 133 3783.15 133 3790.67L133 3886.33C133 3893.85 139.15 3900 146.667 3900H187.667L187.667 3887.02L195.183 3879.5H146.667L170.583 3848.75L187.667 3869.25L211.583 3838.5L222.517 3852.85L256 3818.68V3790.67Z" fill="#515151"/>
<rect x="66" y="3998" width="270" height="18.4091" rx="5" fill="#8C8C8C"/>
<rect x="66" y="4024.08" width="270" height="18.4091" rx="5" fill="#8C8C8C"/>
<rect x="115.091" y="4050.16" width="172.585" height="18.4091" rx="5" fill="#8C8C8C"/>
</g>
<rect x="49" y="4605" width="304" height="216" rx="23" fill="#515151"/>
<g clip-path="url(#clip7_187_3)">
<rect width="402" height="874" transform="translate(0 5244)" fill="white"/>
<rect y="5244" width="402" height="874" fill="#D9D9D9"/>
<rect x="24" y="5317" width="352" height="24" rx="5" fill="#8C8C8C"/>
<rect x="24" y="5422.29" width="352" height="24" rx="5" fill="#8C8C8C"/>
<rect x="24" y="5456.29" width="352" height="24" rx="5" fill="#8C8C8C"/>
<rect x="88" y="5490.29" width="225" height="24" rx="5" fill="#8C8C8C"/>
<rect x="88" y="5562" width="225" height="66" rx="8" fill="#515151"/>
</g>
<rect y="5681" width="402" height="446" fill="#A1A1A1"/>
<rect y="6127" width="402" height="1273" fill="#1E1E1E"/>
<rect x="68" y="6209" width="266" height="161" rx="22" fill="#D9D9D9"/>
<rect x="24" y="6405" width="352" height="13" rx="5" fill="#8C8C8C"/>
<rect x="24" y="6433" width="352" height="14" rx="5" fill="#8C8C8C"/>
<rect x="24" y="6462" width="352" height="13" rx="5" fill="#8C8C8C"/>
<rect x="88" y="6519" width="225" height="66" rx="8" fill="#515151"/>
<rect x="135" y="6629" width="132" height="16" rx="8" fill="#515151"/>
<rect x="135" y="6689" width="132" height="16" rx="8" fill="#515151"/>
<rect x="135" y="6749" width="132" height="16" rx="8" fill="#515151"/>
<rect x="135" y="6809" width="132" height="16" rx="8" fill="#515151"/>
<rect x="135" y="6888" width="132" height="16" rx="8" fill="#515151"/>
<rect x="135" y="6948" width="132" height="16" rx="8" fill="#515151"/>
<rect x="135" y="7008" width="132" height="16" rx="8" fill="#515151"/>
<rect x="135" y="7068" width="132" height="16" rx="8" fill="#515151"/>
<rect x="135" y="7147" width="132" height="16" rx="8" fill="#515151"/>
<rect x="135" y="7207" width="132" height="16" rx="8" fill="#515151"/>
<rect x="135" y="7267" width="132" height="16" rx="8" fill="#515151"/>
<rect x="135" y="7327" width="132" height="16" rx="8" fill="#515151"/>
</g>
<defs>
<clipPath id="clip0_187_3">
<rect width="402" height="7400" fill="white"/>
</clipPath>
<clipPath id="clip1_187_3">
<rect width="402" height="874" fill="white" transform="translate(0 4370)"/>
</clipPath>
<clipPath id="clip2_187_3">
<rect width="402" height="874" fill="white"/>
</clipPath>
<clipPath id="clip3_187_3">
<rect width="402" height="874" fill="white" transform="translate(0 874)"/>
</clipPath>
<clipPath id="clip4_187_3">
<rect width="402" height="874" fill="white" transform="translate(0 1748)"/>
</clipPath>
<clipPath id="clip5_187_3">
<rect width="402" height="874" fill="white" transform="translate(0 2622)"/>
</clipPath>
<clipPath id="clip6_187_3">
<rect width="402" height="874" fill="white" transform="translate(-1 3496)"/>
</clipPath>
<clipPath id="clip7_187_3">
<rect width="402" height="874" fill="white" transform="translate(0 5244)"/>
</clipPath>
</defs>
</svg>
